# xmcd
#
# Track frame offsets: 
#        150
#        15282
#        30939
#        45471
#        66059
#        83084
#        94972
#        102454
#        132229
#        149779
#        166242
#        183230
#        189549
#        237324
#
# Disc length: 3436 seconds
#
# Revision: 0
# Processed by: cddbd v1.5.2PL0 Copyright (c) Steve Scherf et al.
# Submitted via: ExactAudioCopyFreeDBPlugin 1.0
#
DISCID=b30d6a0e
DTITLE=Jimi Hendrix - The Many Faces Of Jimi Hendrix CD 3
DYEAR=2017
DGENRE=Blues Rock
TTITLE0=Fouth Stone - Hey Joe
TTITLE1=Monks Of Doom - Spanish Castle Magic
TTITLE2=Tricky Bag - Fire
TTITLE3=Freedom Searchers - All Along The Watchtower
TTITLE4=Thee Hypnotics - Can You See Me?
TTITLE5=Bleeding Hearts - Purple Haze
TTITLE6=501 Spanish Verbs - Ain't No Telling
TTITLE7=David Dreams - Third Stone From The Sun
TTITLE8=Corn Dollies - I Don't Live Today
TTITLE9=Styler and Baldwin - You Got Me Floating
TTITLE10=Membranes - Voodoo Chile
TTITLE11=Stretch Heads - Spanish Castle Magic
TTITLE12=Obsequious Cheesecake - If Six Was Nine
TTITLE13=Mock Turtles - Are You Experienced?
EXTD=
EXTT0=
EXTT1=
EXTT2=
EXTT3=
EXTT4=
EXTT5=
EXTT6=
EXTT7=
EXTT8=
EXTT9=
EXTT10=
EXTT11=
EXTT12=
EXTT13=
PLAYORDER=
